<mxfile host="app.diagrams.net" modified="2021-11-16T03:44:00.327Z" agent="5.0 (Macintosh; Intel Mac OS X 10_15_5) AppleWebKit/537.36 (KHTML, like Gecko) Chrome/95.0.4638.54 Safari/537.36" etag="pSdHUvRzToM9bp7Gx45J" version="15.2.7" type="github">
  <diagram id="EZFxipF9WW0kz-BHjYni" name="Page-1">
    <mxGraphModel dx="1186" dy="746" grid="1" gridSize="10" guides="1" tooltips="1" connect="1" arrows="1" fold="1" page="1" pageScale="1" pageWidth="1654" pageHeight="1169" math="0" shadow="0">
      <root>
        <mxCell id="0" />
        <mxCell id="1" parent="0" />
        <mxCell id="MM4fSGyf_s-kWATPK-MF-2" value="" style="rounded=0;whiteSpace=wrap;html=1;" parent="1" vertex="1">
          <mxGeometry x="460" y="830" width="690" height="110" as="geometry" />
        </mxCell>
        <mxCell id="MM4fSGyf_s-kWATPK-MF-1" value="redis" style="shape=cylinder3;whiteSpace=wrap;html=1;boundedLbl=1;backgroundOutline=1;size=15;fillColor=#CCCCCC;" parent="1" vertex="1">
          <mxGeometry x="510" y="845" width="60" height="80" as="geometry" />
        </mxCell>
        <mxCell id="MM4fSGyf_s-kWATPK-MF-3" value="存储" style="rounded=0;whiteSpace=wrap;html=1;fillColor=#66FFFF;" parent="1" vertex="1">
          <mxGeometry x="460" y="800" width="690" height="30" as="geometry" />
        </mxCell>
        <mxCell id="MM4fSGyf_s-kWATPK-MF-4" value="rds" style="shape=cylinder3;whiteSpace=wrap;html=1;boundedLbl=1;backgroundOutline=1;size=15;fillColor=#CCCCCC;" parent="1" vertex="1">
          <mxGeometry x="630" y="845" width="60" height="80" as="geometry" />
        </mxCell>
        <mxCell id="MM4fSGyf_s-kWATPK-MF-5" value="holo" style="shape=cylinder3;whiteSpace=wrap;html=1;boundedLbl=1;backgroundOutline=1;size=15;fillColor=#CCCCCC;" parent="1" vertex="1">
          <mxGeometry x="750" y="845" width="60" height="80" as="geometry" />
        </mxCell>
        <mxCell id="MM4fSGyf_s-kWATPK-MF-6" value="hbase" style="shape=cylinder3;whiteSpace=wrap;html=1;boundedLbl=1;backgroundOutline=1;size=15;fillColor=#CCCCCC;" parent="1" vertex="1">
          <mxGeometry x="880" y="845" width="60" height="80" as="geometry" />
        </mxCell>
        <mxCell id="MM4fSGyf_s-kWATPK-MF-7" value="adb" style="shape=cylinder3;whiteSpace=wrap;html=1;boundedLbl=1;backgroundOutline=1;size=15;fillColor=none;" parent="1" vertex="1">
          <mxGeometry x="1010" y="845" width="60" height="80" as="geometry" />
        </mxCell>
        <mxCell id="MM4fSGyf_s-kWATPK-MF-9" value="" style="endArrow=classic;startArrow=classic;html=1;" parent="1" edge="1">
          <mxGeometry width="50" height="50" relative="1" as="geometry">
            <mxPoint x="560" y="790" as="sourcePoint" />
            <mxPoint x="560" y="730" as="targetPoint" />
          </mxGeometry>
        </mxCell>
        <mxCell id="MM4fSGyf_s-kWATPK-MF-10" value="" style="rounded=0;whiteSpace=wrap;html=1;fillColor=none;" parent="1" vertex="1">
          <mxGeometry x="460" y="360" width="690" height="390" as="geometry" />
        </mxCell>
        <mxCell id="MM4fSGyf_s-kWATPK-MF-11" value="" style="endArrow=classic;startArrow=classic;html=1;" parent="1" edge="1">
          <mxGeometry width="50" height="50" relative="1" as="geometry">
            <mxPoint x="1020" y="790" as="sourcePoint" />
            <mxPoint x="1020" y="730" as="targetPoint" />
          </mxGeometry>
        </mxCell>
        <mxCell id="MM4fSGyf_s-kWATPK-MF-12" value="组件元数据配置" style="rounded=0;whiteSpace=wrap;html=1;fillColor=#66FF66;" parent="1" vertex="1">
          <mxGeometry x="500" y="660" width="120" height="60" as="geometry" />
        </mxCell>
        <mxCell id="MM4fSGyf_s-kWATPK-MF-14" value="" style="rounded=1;whiteSpace=wrap;html=1;fillColor=none;dashed=1;" parent="1" vertex="1">
          <mxGeometry x="475" y="370" width="660" height="80" as="geometry" />
        </mxCell>
        <mxCell id="JYkN7G7lw9lBmzCsoR3W-1" value="终态" style="rounded=0;whiteSpace=wrap;html=1;fillColor=#66FF66;" vertex="1" parent="1">
          <mxGeometry x="490" y="380" width="100" height="60" as="geometry" />
        </mxCell>
        <mxCell id="JYkN7G7lw9lBmzCsoR3W-2" value="终态明细" style="rounded=0;whiteSpace=wrap;html=1;fillColor=#66FF66;" vertex="1" parent="1">
          <mxGeometry x="750" y="380" width="100" height="60" as="geometry" />
        </mxCell>
        <mxCell id="JYkN7G7lw9lBmzCsoR3W-3" value="时序明细" style="rounded=0;whiteSpace=wrap;html=1;fillColor=#66FF66;" vertex="1" parent="1">
          <mxGeometry x="880" y="380" width="100" height="60" as="geometry" />
        </mxCell>
        <mxCell id="JYkN7G7lw9lBmzCsoR3W-4" value="定制化" style="rounded=0;whiteSpace=wrap;html=1;" vertex="1" parent="1">
          <mxGeometry x="1010" y="380" width="100" height="60" as="geometry" />
        </mxCell>
        <mxCell id="JYkN7G7lw9lBmzCsoR3W-5" value="时序" style="rounded=0;whiteSpace=wrap;html=1;fillColor=#66FF66;" vertex="1" parent="1">
          <mxGeometry x="620" y="380" width="100" height="60" as="geometry" />
        </mxCell>
      </root>
    </mxGraphModel>
  </diagram>
</mxfile>
